<svg xmlns="http://www.w3.org/2000/svg" viewBox="0 0 1200 420" preserveAspectRatio="xMaxYMid slice">
<defs>
<radialGradient id="glow" cx="62%" cy="38%" r="60%"><stop offset="0" stop-color="#ff2d55" stop-opacity=".75"/><stop offset=".45" stop-color="#b3122f" stop-opacity=".35"/><stop offset="1" stop-color="#050b14" stop-opacity="0"/></radialGradient>
<linearGradient id="col" x1="0" x2="1"><stop offset="0" stop-color="#3a0a16"/><stop offset=".35" stop-color="#ff4a5f"/><stop offset=".6" stop-color="#d11d3c"/><stop offset="1" stop-color="#2a0710"/></linearGradient>
<linearGradient id="cap" x1="0" x2="1"><stop offset="0" stop-color="#4a0d1b"/><stop offset=".5" stop-color="#ff6b78"/><stop offset="1" stop-color="#3a0914"/></linearGradient>
<linearGradient id="ped" x1="0" y1="0" x2="0" y2="1"><stop offset="0" stop-color="#ff5468"/><stop offset="1" stop-color="#7c1226"/></linearGradient>
<linearGradient id="fade" x1="0" x2="1"><stop offset="0" stop-color="#050b14"/><stop offset=".35" stop-color="#050b14" stop-opacity="0"/></linearGradient>
</defs>
<rect width="1200" height="420" fill="url(#glow)"/>
<g opacity=".95">
<polygon points="170,138 600,26 1030,138" fill="url(#ped)"/>
<polygon points="215,132 600,38 985,132" fill="#14040a" opacity=".55"/>
<rect x="170" y="130" width="860" height="14" fill="url(#cap)"/>
<rect x="150" y="116" width="900" height="16" fill="#e0314c" opacity=".7"/>
<rect x="200" y="150" width="46" height="190" rx="3" fill="url(#col)"/><rect x="194" y="142" width="58" height="12" fill="url(#cap)"/><rect x="194" y="338" width="58" height="12" fill="url(#cap)"/><rect x="292" y="150" width="46" height="190" rx="3" fill="url(#col)"/><rect x="286" y="142" width="58" height="12" fill="url(#cap)"/><rect x="286" y="338" width="58" height="12" fill="url(#cap)"/><rect x="384" y="150" width="46" height="190" rx="3" fill="url(#col)"/><rect x="378" y="142" width="58" height="12" fill="url(#cap)"/><rect x="378" y="338" width="58" height="12" fill="url(#cap)"/><rect x="476" y="150" width="46" height="190" rx="3" fill="url(#col)"/><rect x="470" y="142" width="58" height="12" fill="url(#cap)"/><rect x="470" y="338" width="58" height="12" fill="url(#cap)"/><rect x="568" y="150" width="46" height="190" rx="3" fill="url(#col)"/><rect x="562" y="142" width="58" height="12" fill="url(#cap)"/><rect x="562" y="338" width="58" height="12" fill="url(#cap)"/><rect x="660" y="150" width="46" height="190" rx="3" fill="url(#col)"/><rect x="654" y="142" width="58" height="12" fill="url(#cap)"/><rect x="654" y="338" width="58" height="12" fill="url(#cap)"/><rect x="752" y="150" width="46" height="190" rx="3" fill="url(#col)"/><rect x="746" y="142" width="58" height="12" fill="url(#cap)"/><rect x="746" y="338" width="58" height="12" fill="url(#cap)"/><rect x="844" y="150" width="46" height="190" rx="3" fill="url(#col)"/><rect x="838" y="142" width="58" height="12" fill="url(#cap)"/><rect x="838" y="338" width="58" height="12" fill="url(#cap)"/><rect x="208" y="158" width="2" height="176" fill="#000" opacity=".18"/><rect x="217" y="158" width="2" height="176" fill="#000" opacity=".18"/><rect x="226" y="158" width="2" height="176" fill="#000" opacity=".18"/><rect x="235" y="158" width="2" height="176" fill="#000" opacity=".18"/><rect x="300" y="158" width="2" height="176" fill="#000" opacity=".18"/><rect x="309" y="158" width="2" height="176" fill="#000" opacity=".18"/><rect x="318" y="158" width="2" height="176" fill="#000" opacity=".18"/><rect x="327" y="158" width="2" height="176" fill="#000" opacity=".18"/><rect x="392" y="158" width="2" height="176" fill="#000" opacity=".18"/><rect x="401" y="158" width="2" height="176" fill="#000" opacity=".18"/><rect x="410" y="158" width="2" height="176" fill="#000" opacity=".18"/><rect x="419" y="158" width="2" height="176" fill="#000" opacity=".18"/><rect x="484" y="158" width="2" height="176" fill="#000" opacity=".18"/><rect x="493" y="158" width="2" height="176" fill="#000" opacity=".18"/><rect x="502" y="158" width="2" height="176" fill="#000" opacity=".18"/><rect x="511" y="158" width="2" height="176" fill="#000" opacity=".18"/><rect x="576" y="158" width="2" height="176" fill="#000" opacity=".18"/><rect x="585" y="158" width="2" height="176" fill="#000" opacity=".18"/><rect x="594" y="158" width="2" height="176" fill="#000" opacity=".18"/><rect x="603" y="158" width="2" height="176" fill="#000" opacity=".18"/><rect x="668" y="158" width="2" height="176" fill="#000" opacity=".18"/><rect x="677" y="158" width="2" height="176" fill="#000" opacity=".18"/><rect x="686" y="158" width="2" height="176" fill="#000" opacity=".18"/><rect x="695" y="158" width="2" height="176" fill="#000" opacity=".18"/><rect x="760" y="158" width="2" height="176" fill="#000" opacity=".18"/><rect x="769" y="158" width="2" height="176" fill="#000" opacity=".18"/><rect x="778" y="158" width="2" height="176" fill="#000" opacity=".18"/><rect x="787" y="158" width="2" height="176" fill="#000" opacity=".18"/><rect x="852" y="158" width="2" height="176" fill="#000" opacity=".18"/><rect x="861" y="158" width="2" height="176" fill="#000" opacity=".18"/><rect x="870" y="158" width="2" height="176" fill="#000" opacity=".18"/><rect x="879" y="158" width="2" height="176" fill="#000" opacity=".18"/>
<rect x="150" y="350" width="900" height="14" fill="url(#cap)"/>
<rect x="120" y="364" width="960" height="16" fill="#c4213e" opacity=".8"/>
<rect x="90" y="380" width="1020" height="18" fill="#8d1429" opacity=".85"/>
<rect x="60" y="398" width="1080" height="22" fill="#5c0e1d" opacity=".9"/>
<circle cx="600" cy="92" r="16" fill="#0b0710" opacity=".5"/>
</g>
<rect width="1200" height="420" fill="url(#fade)"/>
</svg>